# xmcd CD database file
#
# Track frame offsets:
#	150
#	15412
#	37690
#	63517
#	82876
#	106234
#	119467
#	132402
#	157654
#
# Disc length: 2397 seconds
#
# Revision: 0
# Processed by: cddbd v1.5.2PL0 Copyright (c) Steve Scherf et al.
# Submitted via: CDex 1.70beta2
#
DISCID=5e095b09
DTITLE=Clifford Brown - Land's End
DYEAR=1955
DGENRE=Jazz
TTITLE0=If I Love Again
TTITLE1=Sandu
TTITLE2=Cherokee
TTITLE3=Take The A Train
TTITLE4=Jacqui
TTITLE5=Gerkin For Perkin
TTITLE6=Swingin'
TTITLE7=George's Dilemna
TTITLE8=Lands End
EXTD=YEAR: 1955
EXTT0=
EXTT1=
EXTT2=
EXTT3=
EXTT4=
EXTT5=
EXTT6=
EXTT7=
EXTT8=
PLAYORDER=
